<svg width="237" height="158" viewBox="0 0 237 158" fill="none" xmlns="http://www.w3.org/2000/svg">
<path d="M63 156L21.8 96.5L43.3 93.4L53.8 105.2L93.4 156H63ZM0.200001 156V0.399989H23.6V81.3L22.2 96.2V97L23.6 112.5V156H0.200001ZM43.4 99.8L21.8 96.5L39.9 71.1L58.6 46.9H89.8L53.7 87.6L43.4 99.8ZM152.313 157.9C141.513 157.9 132.246 155.533 124.513 150.8C116.779 146 110.846 139.333 106.713 130.8C102.646 122.267 100.613 112.367 100.613 101.1C100.613 89.2333 102.713 79.1 106.913 70.7C111.113 62.3 116.946 55.9 124.413 51.5C131.879 47.0333 140.479 44.8 150.213 44.8C159.879 44.8 167.979 46.6 174.513 50.2C181.113 53.7333 186.046 58.5 189.313 64.5C192.579 70.4333 194.079 77.0667 193.812 84.4H171.113C171.046 81.4667 170.579 78.8 169.713 76.4C168.846 73.9333 167.546 71.8667 165.813 70.2C164.146 68.4667 162.013 67.1333 159.413 66.2C156.813 65.2667 153.779 64.8 150.313 64.8C140.979 64.7333 134.346 67.9333 130.413 74.4C126.546 80.8667 124.613 89.6 124.613 100.6C124.613 113.133 126.946 122.5 131.613 128.7C136.346 134.833 143.713 137.933 153.713 138C156.046 138 158.579 137.333 161.313 136C164.113 134.6 166.479 132.633 168.413 130.1C170.413 127.5 171.379 124.4 171.313 120.8H193.812C194.079 128.467 192.246 135.067 188.313 140.6C184.446 146.133 179.313 150.4 172.913 153.4C166.513 156.4 159.646 157.9 152.313 157.9ZM221.439 157.5C217.172 157.5 213.539 156.033 210.539 153.1C207.606 150.1 206.139 146.2 206.139 141.4C206.139 136.733 207.606 132.9 210.539 129.9C213.539 126.9 217.172 125.4 221.439 125.4C225.772 125.4 229.406 126.9 232.339 129.9C235.272 132.9 236.739 136.733 236.739 141.4C236.739 146.2 235.239 150.1 232.239 153.1C229.306 156.033 225.706 157.5 221.439 157.5Z" fill="black"/>
</svg>
